# xmcd
# 
# Track frame offsets:
#     150
#     22360
#     44850
#     65438
#     88805
#     104808
#     122348
#     145073
#     168048
#     189628
# 
# Disc length: 2758
# 
# Revision: 4
# Processed by: cddbd v1.5.2PL0 Copyright (c) Steve Scherf et al.
# Submitted via: fre:ac v1.0.27
# 
DISCID=930ac40a
DTITLE=趙詠華 - 只能說遺憾
DYEAR=1997
DGENRE=Other
TTITLE0=1.散心
TTITLE1=2.只能說遺憾
TTITLE2=3.我想那是你
TTITLE3=4.你問愛情
TTITLE4=5.原諒
TTITLE5=6.愛你一生都太少
TTITLE6=7.明天換季
TTITLE7=8.暖情歌
TTITLE8=9.喜歡有你的夜
TTITLE9=10.呼吸
EXTD=YEAR: 1997
EXTT0=
EXTT1=
EXTT2=
EXTT3=
EXTT4=
EXTT5=
EXTT6=
EXTT7=
EXTT8=
EXTT9=
PLAYORDER=
